{
    "accessors": {
        "accessor_16": {
            "bufferView": "bufferView_49",
            "byteOffset": 48,
            "byteStride": 0,
            "componentType": 5123,
            "count": 12,
            "type": "SCALAR"
        },
        "accessor_18": {
            "bufferView": "bufferView_50",
            "byteOffset": 512,
            "byteStride": 12,
            "componentType": 5126,
            "count": 8,
            "max": [
                48.975,
                11.7322,
                34.84
            ],
            "min": [
                0,
                0,
                0
            ],
            "type": "VEC3"
        },
        "accessor_20": {
            "bufferView": "bufferView_50",
            "byteOffset": 608,
            "byteStride": 12,
            "componentType": 5126,
            "count": 8,
            "max": [
                -0,
                0,
                0
            ],
            "min": [
                -1,
                0,
                -1
            ],
            "type": "VEC3"
        },
        "accessor_41": {
            "bufferView": "bufferView_49",
            "byteOffset": 0,
            "byteStride": 0,
            "componentType": 5123,
            "count": 24,
            "type": "SCALAR"
        },
        "accessor_43": {
            "bufferView": "bufferView_50",
            "byteOffset": 0,
            "byteStride": 12,
            "componentType": 5126,
            "count": 16,
            "max": [
                48.975,
                11.7322,
                34.84
            ],
            "min": [
                0,
                0,
                0
            ],
            "type": "VEC3"
        },
        "accessor_45": {
            "bufferView": "bufferView_50",
            "byteOffset": 192,
            "byteStride": 12,
            "componentType": 5126,
            "count": 16,
            "max": [
                1,
                1,
                1
            ],
            "min": [
                0,
                -1,
                0
            ],
            "type": "VEC3"
        },
        "accessor_47": {
            "bufferView": "bufferView_50",
            "byteOffset": 384,
            "byteStride": 8,
            "componentType": 5126,
            "count": 16,
            "max": [
                177.015,
                1
            ],
            "min": [
                -177.015,
                -113.304
            ],
            "type": "VEC2"
        }
    },
    "animations": {},
    "asset": {
        "generator": "collada2gltf@cf6371beb0bdc18ba603378d5e40c966da53d385",
        "premultipliedAlpha": true,
        "profile": {
            "api": "WebGL",
            "version": "1.0.2"
        },
        "version": "1.0"
    },
    "bufferViews": {
        "bufferView_49": {
            "buffer": "\\Users\\Administrator\\Desktop\\sluice",
            "byteLength": 72,
            "byteOffset": 0,
            "target": 34963
        },
        "bufferView_50": {
            "buffer": "\\Users\\Administrator\\Desktop\\sluice",
            "byteLength": 704,
            "byteOffset": 72,
            "target": 34962
        }
    },
    "buffers": {
        "\\Users\\Administrator\\Desktop\\sluice": {
            "byteLength": 776,
            "type": "arraybuffer",
            "uri": "data:application/octet-stream;base64,"
        }
    },
    "cameras": {
        "ID1": {
            "name": "skp_camera_Last_Saved_SketchUp_View",
            "perspective": {
                "aspect_ratio": 0,
                "yfov": 0.610865,
                "zfar": 25.4,
                "znear": 0.0254
            },
            "type": "perspective"
        }
    },
    "images": {
        "ID14": {
            "name": "ID14",
            "uri": "sluice/Plastic_Red.jpg"
        }
    },
    "materials": {
        "ID13": {
            "name": "Plastic_Red",
            "technique": "technique0",
            "values": {
                "diffuse": "texture_ID14"
            }
        },
        "ID4": {
            "name": "material",
            "technique": "technique1",
            "values": {
                "diffuse": [
                    1,
                    1,
                    1,
                    1
                ]
            }
        }
    },
    "meshes": {
        "ID11": {
            "name": "ID11",
            "primitives": [
                {
                    "attributes": {
                        "NORMAL": "accessor_45",
                        "POSITION": "accessor_43",
                        "TEXCOORD_0": "accessor_47"
                    },
                    "indices": "accessor_41",
                    "material": "ID13",
                    "mode": 4
                }
            ]
        },
        "ID3": {
            "name": "ID3",
            "primitives": [
                {
                    "attributes": {
                        "NORMAL": "accessor_20",
                        "POSITION": "accessor_18"
                    },
                    "indices": "accessor_16",
                    "material": "ID4",
                    "mode": 4
                }
            ]
        }
    },
    "nodes": {
        "node_0": {
            "children": [
                "node_1"
            ],
            "matrix": [
                1,
                0,
                0,
                0,
                0,
                1,
                0,
                0,
                0,
                0,
                1,
                0,
                0,
                0,
                0,
                1
            ],
            "meshes": [
                "ID3",
                "ID11"
            ],
            "name": "SketchUp"
        },
        "node_1": {
            "camera": "ID1",
            "children": [],
            "matrix": [
                0.503288,
                0.864119,
                -2.77556e-017,
                0,
                -0.281326,
                0.163852,
                0.94552,
                0,
                0.817042,
                -0.475869,
                0.325564,
                0,
                143.809,
                -60.3751,
                69.8633,
                1
            ],
            "name": "skp_camera_Last_Saved_SketchUp_View"
        },
        "node_2": {
            "children": [
                "node_0"
            ],
            "matrix": [
                1,
                0,
                0,
                0,
                0,
                0,
                -1,
                0,
                0,
                1,
                0,
                0,
                0,
                0,
                0,
                1
            ],
            "name": "Y_UP_Transform"
        }
    },
    "programs": {
        "program_0": {
            "attributes": [
                "a_normal",
                "a_position",
                "a_texcoord0"
            ],
            "fragmentShader": "\\Users\\Administrator\\Desktop\\sluice0FS",
            "vertexShader": "\\Users\\Administrator\\Desktop\\sluice0VS"
        },
        "program_1": {
            "attributes": [
                "a_normal",
                "a_position"
            ],
            "fragmentShader": "\\Users\\Administrator\\Desktop\\sluice1FS",
            "vertexShader": "\\Users\\Administrator\\Desktop\\sluice1VS"
        }
    },
    "samplers": {
        "sampler_0": {
            "magFilter": 9729,
            "minFilter": 9729,
            "wrapS": 10497,
            "wrapT": 10497
        }
    },
    "scene": "defaultScene",
    "scenes": {
        "defaultScene": {
            "nodes": [
                "node_2"
            ]
        }
    },
    "shaders": {
        "\\Users\\Administrator\\Desktop\\sluice0FS": {
            "type": 35632,
            "uri": "data:text/plain;base64,"
        },
        "\\Users\\Administrator\\Desktop\\sluice0VS": {
            "type": 35633,
            "uri": "data:text/plain;base64,"
        },
        "\\Users\\Administrator\\Desktop\\sluice1FS": {
            "type": 35632,
            "uri": "data:text/plain;base64,"
        },
        "\\Users\\Administrator\\Desktop\\sluice1VS": {
            "type": 35633,
            "uri": "data:text/plain;base64,"
        }
    },
    "skins": {},
    "techniques": {
        "technique0": {
            "attributes": {
                "a_normal": "normal",
                "a_position": "position",
                "a_texcoord0": "texcoord0"
            },
            "parameters": {
                "diffuse": {
                    "type": 35678
                },
                "modelViewMatrix": {
                    "semantic": "MODELVIEW",
                    "type": 35676
                },
                "normal": {
                    "semantic": "NORMAL",
                    "type": 35665
                },
                "normalMatrix": {
                    "semantic": "MODELVIEWINVERSETRANSPOSE",
                    "type": 35675
                },
                "position": {
                    "semantic": "POSITION",
                    "type": 35665
                },
                "projectionMatrix": {
                    "semantic": "PROJECTION",
                    "type": 35676
                },
                "texcoord0": {
                    "semantic": "TEXCOORD_0",
                    "type": 35664
                }
            },
            "program": "program_0",
            "states": {
                "enable": [
                    2929,
                    2884
                ]
            },
            "uniforms": {
                "u_diffuse": "diffuse",
                "u_modelViewMatrix": "modelViewMatrix",
                "u_normalMatrix": "normalMatrix",
                "u_projectionMatrix": "projectionMatrix"
            }
        },
        "technique1": {
            "attributes": {
                "a_normal": "normal",
                "a_position": "position"
            },
            "parameters": {
                "diffuse": {
                    "type": 35666
                },
                "modelViewMatrix": {
                    "semantic": "MODELVIEW",
                    "type": 35676
                },
                "normal": {
                    "semantic": "NORMAL",
                    "type": 35665
                },
                "normalMatrix": {
                    "semantic": "MODELVIEWINVERSETRANSPOSE",
                    "type": 35675
                },
                "position": {
                    "semantic": "POSITION",
                    "type": 35665
                },
                "projectionMatrix": {
                    "semantic": "PROJECTION",
                    "type": 35676
                }
            },
            "program": "program_1",
            "states": {
                "enable": [
                    2929,
                    2884
                ]
            },
            "uniforms": {
                "u_diffuse": "diffuse",
                "u_modelViewMatrix": "modelViewMatrix",
                "u_normalMatrix": "normalMatrix",
                "u_projectionMatrix": "projectionMatrix"
            }
        }
    },
    "textures": {
        "texture_ID14": {
            "format": 6408,
            "internalFormat": 6408,
            "sampler": "sampler_0",
            "source": "ID14",
            "target": 3553,
            "type": 5121
        }
    }
}